<svg width="27" height="28" viewBox="0 0 27 28" fill="none" xmlns="http://www.w3.org/2000/svg">
<g clip-path="url(#clip0_0_32)">
<path d="M25.9263 10.6997L17.83 9.52322L14.2092 2.18682C14.0642 1.89309 13.7821 1.74596 13.4999 1.74596L13.501 22.8503L20.7414 26.6571C21.322 26.962 21.9997 26.4694 21.8889 25.8234L20.5062 17.7593L26.3645 12.0487C26.8344 11.5909 26.5749 10.7941 25.9263 10.6997Z" fill="#19212C"/>
<path d="M18.8061 17.2071C18.8061 17.2071 20.0549 24.4861 20.0591 24.5103C20.0549 24.5098 13.6018 22.8756 13.501 22.8503C13.5 22.8497 6.25849 26.6571 6.25849 26.6571C5.67789 26.962 5.00025 26.4694 5.11099 25.8234L6.49369 17.7593L0.635425 12.0487C0.165562 11.5909 0.425015 10.7941 1.07365 10.6997L9.16996 9.52322L12.7907 2.18682C12.9357 1.89309 13.2178 1.74596 13.5 1.74596L16.7795 10.9692L24.1128 12.035L18.8061 17.2071Z" fill="#19212C"/>
<path d="M26.941 11.1158C26.8004 10.6831 26.4335 10.3738 25.9834 10.3084L18.0926 9.16176L14.5638 2.01163C14.3625 1.60373 13.9548 1.35034 13.5 1.35034C13.0451 1.35034 12.6374 1.60373 12.4362 2.01163L8.90734 9.16176L1.0166 10.3084C0.566409 10.3738 0.199484 10.6831 0.0588942 11.1158C-0.0816954 11.5485 0.0333708 12.0144 0.35911 12.332L6.06886 17.8976L5.54621 20.9449C5.5093 21.1602 5.65389 21.3646 5.86916 21.4016C6.08468 21.4385 6.28892 21.2939 6.32583 21.0786L6.88366 17.8264C6.90565 17.6981 6.86314 17.5672 6.76991 17.4763L0.911238 11.7654C0.801076 11.658 0.763688 11.5065 0.811201 11.3602C0.858768 11.2139 0.978052 11.1132 1.13035 11.0911L9.22685 9.9146C9.35568 9.89593 9.467 9.81498 9.52464 9.69823L13.1455 2.36157C13.2136 2.22357 13.3461 2.1412 13.5 2.1412C13.6538 2.1412 13.7864 2.22357 13.8544 2.36157L17.4753 9.69823C17.533 9.81498 17.6443 9.89588 17.7731 9.9146L25.8696 11.0911C26.0219 11.1132 26.1412 11.2138 26.1887 11.3601C26.2363 11.5065 26.1989 11.658 26.0887 11.7654L20.23 17.4762C20.1368 17.5671 20.0942 17.698 20.1163 17.8263L21.4993 25.8901C21.5254 26.0417 21.4666 26.1863 21.3421 26.2767C21.2176 26.3671 21.062 26.3784 20.9257 26.3068L13.684 22.4996C13.5687 22.4391 13.4311 22.4391 13.3159 22.4996L6.07419 26.3068C5.93797 26.3784 5.7823 26.3671 5.6579 26.2767C5.5334 26.1863 5.4746 26.0417 5.50065 25.8901L6.05847 22.6378C6.09539 22.4225 5.95079 22.2181 5.73553 22.1811C5.52005 22.1444 5.31576 22.2889 5.27885 22.5041L4.72103 25.7564C4.64414 26.2047 4.82496 26.6493 5.193 26.9167C5.40093 27.0678 5.64424 27.1445 5.88914 27.1445C6.07767 27.1445 6.26719 27.0991 6.44232 27.007L13.5 23.2966L20.5576 27.007C20.9602 27.2187 21.4389 27.184 21.807 26.9167C22.175 26.6493 22.3558 26.2047 22.2789 25.7564L20.931 17.8976L26.6408 12.3319C26.9666 12.0144 27.0816 11.5484 26.941 11.1158Z" fill="#19212C"/>
<path d="M25.9263 11.0685L17.83 9.892L14.2092 2.55559C14.0642 2.26186 13.7821 2.11473 13.4999 2.11473L13.501 23.219L20.7414 27.0259C21.322 27.3307 21.9997 26.8382 21.8889 26.1922L20.5062 18.128L26.3645 12.4174C26.8344 11.9597 26.5749 11.1629 25.9263 11.0685Z" fill="#FFB820"/>
<path d="M18.8061 17.5759C18.8061 17.5759 20.0549 24.8548 20.0591 24.8791C20.0549 24.8786 13.6018 23.2443 13.501 23.219C13.5 23.2185 6.25849 27.0259 6.25849 27.0259C5.67789 27.3307 5.00025 26.8382 5.11099 26.1922L6.49369 18.128L0.635425 12.4174C0.165562 11.9597 0.425015 11.1629 1.07365 11.0685L9.16996 9.892L12.7907 2.55559C12.9357 2.26186 13.2178 2.11473 13.5 2.11473L16.7795 11.338L24.1128 12.4037L18.8061 17.5759Z" fill="#FFD06A"/>
<path d="M26.941 11.4846C26.8004 11.0519 26.4335 10.7426 25.9834 10.6771L18.0926 9.53054L14.5638 2.3804C14.3625 1.9725 13.9548 1.71912 13.5 1.71912C13.0451 1.71912 12.6374 1.9725 12.4362 2.3804L8.90734 9.53054L1.0166 10.6772C0.566409 10.7426 0.199484 11.0519 0.0588942 11.4846C-0.0816954 11.9173 0.0333708 12.3832 0.35911 12.7008L6.06886 18.2664L5.54621 21.3137C5.5093 21.529 5.65389 21.7334 5.86916 21.7704C6.08468 21.8073 6.28892 21.6626 6.32583 21.4474L6.88366 18.1951C6.90565 18.0668 6.86314 17.936 6.76991 17.845L0.911238 12.1342C0.801076 12.0268 0.763688 11.8753 0.811201 11.729C0.858768 11.5826 0.978052 11.482 1.13035 11.4599L9.22685 10.2834C9.35568 10.2647 9.467 10.1838 9.52464 10.067L13.1455 2.73035C13.2136 2.59234 13.3461 2.50997 13.5 2.50997C13.6538 2.50997 13.7864 2.59234 13.8544 2.73035L17.4753 10.067C17.533 10.1838 17.6443 10.2647 17.7731 10.2834L25.8696 11.4599C26.0219 11.482 26.1412 11.5826 26.1887 11.7289C26.2363 11.8753 26.1989 12.0268 26.0887 12.1342L20.23 17.845C20.1368 17.9359 20.0942 18.0668 20.1163 18.1951L21.4993 26.2588C21.5254 26.4105 21.4666 26.5551 21.3421 26.6455C21.2176 26.7359 21.062 26.7472 20.9257 26.6756L13.684 22.8684C13.5687 22.8079 13.4311 22.8079 13.3159 22.8684L6.07419 26.6756C5.93797 26.7472 5.7823 26.7359 5.6579 26.6455C5.5334 26.5551 5.4746 26.4105 5.50065 26.2588L6.05847 23.0066C6.09539 22.7913 5.95079 22.5869 5.73553 22.5499C5.52005 22.5131 5.31576 22.6576 5.27885 22.8729L4.72103 26.1252C4.64414 26.5735 4.82496 27.0181 5.193 27.2855C5.40093 27.4366 5.64424 27.5133 5.88914 27.5133C6.07767 27.5133 6.26719 27.4678 6.44232 27.3758L13.5 23.6654L20.5576 27.3758C20.9602 27.5874 21.4389 27.5528 21.807 27.2855C22.175 27.0181 22.3558 26.5735 22.2789 26.1252L20.931 18.2663L26.6408 12.7007C26.9666 12.3831 27.0816 11.9171 26.941 11.4846Z" fill="black"/>
</g>
<defs>
<clipPath id="clip0_0_32">
<rect width="27" height="27" fill="white" transform="translate(0 0.747437)"/>
</clipPath>
</defs>
</svg>
